<svg width="58.000000" height="53.000000" viewBox="0 0 58 53" fill="none" xmlns="http://www.w3.org/2000/svg" xmlns:xlink="http://www.w3.org/1999/xlink">
	<desc>
			Created with Pixso.
	</desc>
	<defs/>
	<path id="Vector" d="M43.07 17.27C42.86 17.43 39.21 19.51 39.21 24.13C39.21 29.47 43.86 31.36 44 31.41C43.97 31.52 43.26 34 41.55 36.52C40.02 38.73 38.43 40.95 36.01 40.95C33.59 40.95 32.96 39.53 30.17 39.53C27.44 39.53 26.47 41 24.26 41C22.04 41 20.5 38.94 18.72 36.42C16.66 33.46 15 28.87 15 24.5C15 17.5 19.5 13.79 23.93 13.79C26.28 13.79 28.25 15.35 29.72 15.35C31.13 15.35 33.33 13.7 36 13.7C37.02 13.7 40.67 13.79 43.07 17.27L43.07 17.27M34.73 10.73C35.84 9.41 36.62 7.56 36.62 5.72C36.62 5.46 36.6 5.2 36.56 5C34.75 5.06 32.61 6.21 31.32 7.72C30.3 8.89 29.35 10.73 29.35 12.6C29.35 12.88 29.4 13.16 29.42 13.25C29.54 13.28 29.72 13.3 29.91 13.3C31.52 13.3 33.56 12.21 34.73 10.73L34.73 10.73Z" fill="#303030" fill-opacity="1.000000" fill-rule="nonzero"/>
	<g opacity="0.200000">
		<rect id="Rectangle 25" x="0.500000" y="0.500000" rx="26.000000" width="57.000000" height="52.000000" stroke="#000000" stroke-opacity="1.000000" stroke-width="1.000000"/>
	</g>
</svg>
