<svg width="1440.000000" height="306.000000" viewBox="0 0 1440 306" fill="none" xmlns="http://www.w3.org/2000/svg" xmlns:xlink="http://www.w3.org/1999/xlink">
	<desc>
			Created with Pixso.
	</desc>
	<defs>
		<clipPath id="clip44_230">
			<rect id="Facebook" width="34.000000" height="33.000000" transform="translate(60.000000 120.000000)" fill="white" fill-opacity="0"/>
		</clipPath>
	</defs>
	<rect id="Rectangle 27" width="1440.000000" height="306.000000" fill="#F78A15" fill-opacity="1.000000"/>
	<g clip-path="url(#clip44_230)">
		<path id="path" d="M62.91 151.62C62.08 151.62 61.41 150.97 61.41 150.16L61.41 122.83C61.41 122.02 62.08 121.37 62.91 121.37L91.08 121.37C91.91 121.37 92.58 122.02 92.58 122.83L92.58 150.16C92.58 150.97 91.91 151.62 91.08 151.62C90.09 151.62 80.69 151.62 62.91 151.62Z" fill="#000000" fill-opacity="0" fill-rule="evenodd"/>
		<path id="path" d="M61.41 150.16L61.41 122.83C61.41 122.02 62.08 121.37 62.91 121.37L91.08 121.37C91.91 121.37 92.58 122.02 92.58 122.83L92.58 150.16C92.58 150.97 91.91 151.62 91.08 151.62C90.09 151.62 80.69 151.62 62.91 151.62C62.08 151.62 61.41 150.97 61.41 150.16Z" stroke="#000000" stroke-opacity="1.000000" stroke-width="1.500000" stroke-linejoin="round"/>
		<path id="path" d="M87.38 132.29L84.3 132.29L83.93 132.29C82.98 132.29 82.2 133.05 82.2 133.97L82.2 137.34L87.38 137.34L86.62 142.38L82.2 142.38L82.2 151.62L76.5 151.62L76.5 142.38L71.8 142.38L71.8 137.34L76.44 137.34L76.5 132.55L76.49 130.84C76.46 128.42 78.47 126.43 80.96 126.41L87.38 126.41L87.38 132.29Z" fill="#000000" fill-opacity="1.000000" fill-rule="evenodd"/>
	</g>
</svg>
