<svg width="58.000000" height="53.000000" viewBox="0 0 58 53" fill="none" xmlns="http://www.w3.org/2000/svg" xmlns:xlink="http://www.w3.org/1999/xlink">
	<desc>
			Created with Pixso.
	</desc>
	<defs/>
	<g opacity="0.200000">
		<rect id="Rectangle 25" x="0.500000" y="0.500000" rx="26.000000" width="57.000000" height="52.000000" stroke="#000000" stroke-opacity="1.000000" stroke-width="1.000000"/>
	</g>
	<path id="Vector" d="M21.28 23.65C22.39 20.28 25.56 17.85 29.32 17.85C31.33 17.85 33.16 18.57 34.59 19.74L38.75 15.58C36.22 13.36 32.96 12 29.32 12C23.67 12 18.81 15.22 16.47 19.93L21.28 23.65Z" fill="#EA4335" fill-opacity="1.000000" fill-rule="nonzero"/>
	<path id="Vector" d="M34.14 33.49C32.84 34.33 31.18 34.78 29.32 34.78C25.58 34.78 22.42 32.37 21.29 29.02L16.47 32.68C18.81 37.41 23.66 40.64 29.32 40.64C32.82 40.64 36.16 39.39 38.66 37.06L34.14 33.49Z" fill="#34A853" fill-opacity="1.000000" fill-rule="nonzero"/>
	<path id="Vector" d="M38.66 37.06C41.28 34.61 42.98 30.97 42.98 26.32C42.98 25.47 42.85 24.56 42.66 23.71L29.32 23.71L29.32 29.24L37 29.24C36.62 31.11 35.6 32.55 34.14 33.49L38.66 37.06Z" fill="#4A90E2" fill-opacity="1.000000" fill-rule="nonzero"/>
	<path id="Vector" d="M21.29 29.02C21.01 28.17 20.85 27.26 20.85 26.32C20.85 25.38 21 24.49 21.28 23.65L16.47 19.93C15.52 21.85 15 24.02 15 26.32C15 28.61 15.53 30.77 16.47 32.68L21.29 29.02Z" fill="#FBBC05" fill-opacity="1.000000" fill-rule="nonzero"/>
</svg>
