<svg width="26.158569" height="29.379303" viewBox="0 0 26.1586 29.3793" fill="none" xmlns="http://www.w3.org/2000/svg" xmlns:xlink="http://www.w3.org/1999/xlink">
	<desc>
			Created with Pixso.
	</desc>
	<defs>
		<clipPath id="clip15_51">
			<rect id="frame" width="26.158583" height="29.379311" fill="white" fill-opacity="0"/>
		</clipPath>
	</defs>
	<rect id="frame" width="26.158583" height="29.379311" fill="#FFFFFF" fill-opacity="0"/>
	<g clip-path="url(#clip15_51)">
		<path id="Vector" d="M13.25 14.22C13.21 14.22 13.19 14.22 13.16 14.22C13.11 14.21 13.03 14.21 12.96 14.22C9.8 14.11 7.42 11.32 7.42 7.88C7.42 4.38 9.96 1.53 13.07 1.53C16.19 1.53 18.73 4.38 18.73 7.88C18.72 11.32 16.32 14.11 13.28 14.22C13.27 14.22 13.26 14.22 13.25 14.22ZM13.07 3.36C10.86 3.36 9.05 5.39 9.05 7.88C9.05 10.33 10.75 12.3 12.92 12.38C12.97 12.37 13.13 12.37 13.27 12.38C15.41 12.27 17.08 10.3 17.09 7.88C17.09 5.39 15.29 3.36 13.07 3.36Z" fill="#232229" fill-opacity="1.000000" fill-rule="nonzero"/>
		<path id="Vector" d="M13.26 27.6C11.13 27.6 8.98 26.99 7.35 25.76C5.84 24.64 5.01 23.09 5.01 21.42C5.01 19.74 5.84 18.19 7.35 17.05C10.62 14.61 15.92 14.61 19.17 17.05C20.67 18.17 21.51 19.72 21.51 21.39C21.51 23.07 20.68 24.62 19.17 25.76C17.53 26.99 15.4 27.6 13.26 27.6ZM8.26 18.59C7.21 19.37 6.65 20.38 6.65 21.43C6.65 22.47 7.22 23.47 8.26 24.25C10.97 26.29 15.55 26.29 18.26 24.25C19.31 23.46 19.88 22.46 19.88 21.41C19.88 20.36 19.3 19.36 18.26 18.59C15.55 16.56 10.97 16.56 8.26 18.59Z" fill="#232229" fill-opacity="1.000000" fill-rule="nonzero"/>
	</g>
</svg>
