<svg width="136.000000" height="111.000000" viewBox="0 0 136 111" fill="none" xmlns="http://www.w3.org/2000/svg" xmlns:xlink="http://www.w3.org/1999/xlink">
	<desc>
			Created with Pixso.
	</desc>
	<defs>
		<clipPath id="clip20_240">
			<rect id="Book" width="54.000000" height="64.151085" transform="translate(43.000000 21.000000)" fill="white" fill-opacity="0"/>
		</clipPath>
	</defs>
	<ellipse id="Oval 2" cx="68.000000" cy="55.500000" rx="68.000000" ry="55.500000" fill="#FFFFFF" fill-opacity="1.000000"/>
	<ellipse id="Oval 2" cx="68.000000" cy="55.500000" rx="67.500000" ry="55.000000" stroke="#000000" stroke-opacity="1.000000" stroke-width="1.000000"/>
	<g clip-path="url(#clip20_240)">
		<path id="path" d="M52 74.42C52 69.08 52 34.35 52 34.35C52 29.93 55.22 26.34 59.2 26.34L88 26.34L88 69.08C88 69.08 65.47 69.08 59.2 69.08C53.53 69.08 52 69.99 52 74.42Z" fill="#000000" fill-opacity="0" fill-rule="nonzero"/>
		<path id="path" d="M52 34.35C52 29.93 55.22 26.34 59.2 26.34L88 26.34L88 69.08C88 69.08 65.47 69.08 59.2 69.08C53.53 69.08 52 69.99 52 74.42C52 69.08 52 34.35 52 34.35Z" stroke="#808080" stroke-opacity="1.000000" stroke-width="1.500000" stroke-linejoin="round"/>
		<path id="path" d="M56.5 79.76L88 79.76L88 69.08L56.5 69.08C54.01 69.08 52 71.47 52 74.42C52 77.37 54.01 79.76 56.5 79.76Z" fill="#000000" fill-opacity="0" fill-rule="evenodd"/>
		<path id="path" d="M88 79.76L88 69.08L56.5 69.08C54.01 69.08 52 71.47 52 74.42C52 77.37 54.01 79.76 56.5 79.76L88 79.76Z" stroke="#808080" stroke-opacity="1.000000" stroke-width="1.500000" stroke-linejoin="round"/>
	</g>
</svg>
