<svg width="136.000000" height="111.000000" viewBox="0 0 136 111" fill="none" xmlns="http://www.w3.org/2000/svg" xmlns:xlink="http://www.w3.org/1999/xlink">
	<desc>
			Created with Pixso.
	</desc>
	<defs>
		<clipPath id="clip20_230">
			<rect id="Notebook" width="54.000000" height="64.151085" transform="translate(41.000000 21.000000)" fill="white" fill-opacity="0"/>
		</clipPath>
	</defs>
	<ellipse id="Oval 2" cx="68.000000" cy="55.500000" rx="68.000000" ry="55.500000" fill="#FFFFFF" fill-opacity="1.000000"/>
	<ellipse id="Oval 2" cx="68.000000" cy="55.500000" rx="67.500000" ry="55.000000" stroke="#000000" stroke-opacity="1.000000" stroke-width="1.000000"/>
	<g clip-path="url(#clip20_230)">
		<rect id="rect" x="50.000000" y="31.684753" width="36.000000" height="26.711931" fill="#000000" fill-opacity="0"/>
		<rect id="rect" x="50.000000" y="31.684753" width="36.000000" height="26.711931" stroke="#808080" stroke-opacity="1.000000" stroke-width="1.500000" stroke-linejoin="round"/>
		<path id="path" d="M49.28 58.23L49.27 58.2C49.37 57.8 49.78 57.56 50.18 57.67C50.59 57.77 50.83 58.17 50.72 58.58L50.7 58.59L49.28 58.23ZM85.29 58.59L85.27 58.58C85.16 58.17 85.4 57.77 85.81 57.67C86.21 57.56 86.62 57.8 86.72 58.2L86.71 58.23L85.29 58.59Z" fill="#000000" fill-opacity="0" fill-rule="nonzero"/>
		<path id="path" d="M50 58.39L45.5 75.75L90.5 75.75L86 58.39" stroke="#808080" stroke-opacity="1.000000" stroke-width="1.500000" stroke-linejoin="round" stroke-linecap="round"/>
		<path id="path" d="M63.38 67.74L72.61 67.74L74.75 75.75L61.25 75.75L63.38 67.74Z" fill="#000000" fill-opacity="0" fill-rule="nonzero"/>
		<path id="path" d="M72.61 67.74L74.75 75.75L61.25 75.75L63.38 67.74L72.61 67.74Z" stroke="#808080" stroke-opacity="1.000000" stroke-width="1.500000" stroke-linejoin="round"/>
	</g>
</svg>
