<svg width="1440.000000" height="306.000000" viewBox="0 0 1440 306" fill="none" xmlns="http://www.w3.org/2000/svg" xmlns:xlink="http://www.w3.org/1999/xlink">
	<desc>
			Created with Pixso.
	</desc>
	<defs/>
	<rect id="Rectangle 27" width="1440.000000" height="306.000000" fill="#F78A15" fill-opacity="1.000000"/>
	<rect id="Rectangle 28" x="683.000000" y="25.000000" width="366.000000" height="228.000000" fill="#C4C4C4" fill-opacity="1.000000"/>
	<path id="LOGO" d="M862.82 127.5Q862.36 126.08 861.53 125.12C860.98 124.5 860.31 124.01 859.52 123.67C858.72 123.32 857.83 123.15 856.84 123.15Q855.38 123.15 854.19 123.65C853.4 123.99 852.72 124.48 852.16 125.12C851.6 125.79 851.17 126.58 850.87 127.51Q850.42 128.89 850.42 130.73C850.42 131.92 850.57 132.99 850.86 133.93C851.16 134.88 851.59 135.67 852.15 136.32C852.72 136.97 853.4 137.47 854.18 137.8Q855.37 138.3 856.84 138.3C857.79 138.3 858.66 138.14 859.45 137.81C860.24 137.49 860.94 136.99 861.53 136.32C862.1 135.67 862.53 134.87 862.83 133.92C863.13 132.97 863.28 131.91 863.28 130.73C863.28 129.52 863.12 128.44 862.82 127.5ZM890.32 127.5Q889.86 126.08 889.03 125.12C888.48 124.5 887.81 124.01 887.02 123.67C886.22 123.32 885.33 123.15 884.34 123.15Q882.88 123.15 881.69 123.65C880.9 123.99 880.22 124.48 879.66 125.12C879.1 125.79 878.67 126.58 878.37 127.51Q877.92 128.89 877.92 130.73C877.92 131.92 878.07 132.99 878.36 133.93C878.66 134.88 879.09 135.67 879.65 136.32C880.22 136.97 880.9 137.47 881.68 137.8C882.47 138.13 883.36 138.3 884.34 138.3C885.29 138.3 886.16 138.14 886.95 137.81C887.74 137.49 888.44 136.99 889.03 136.32C889.6 135.67 890.03 134.87 890.33 133.92C890.63 132.97 890.78 131.91 890.78 130.73C890.78 129.52 890.62 128.44 890.32 127.5ZM868.66 137.81C869.51 138.12 870.45 138.28 871.48 138.28C872.03 138.28 872.49 138.24 872.88 138.17Q873.45 138.06 874.17 137.85C874.52 137.75 874.91 137.62 875.32 137.45C875.74 137.28 876.07 137.14 876.31 137.03L876.31 130.68L871.04 130.68L871.04 132.38L874.4 132.38L874.4 136.14C874.03 136.3 873.57 136.41 873.03 136.49C872.49 136.57 871.95 136.61 871.4 136.61C870.67 136.61 870 136.48 869.41 136.21C868.83 135.95 868.32 135.57 867.91 135.07C867.48 134.56 867.15 133.94 866.92 133.21C866.69 132.48 866.58 131.63 866.58 130.65Q866.58 128.04 867.85 126.47Q867.86 126.45 867.87 126.44C868.73 125.39 869.87 124.86 871.27 124.86Q872.14 124.86 872.91 125.06C873.41 125.19 873.86 125.35 874.25 125.54C874.72 125.77 875.09 125.97 875.34 126.16C875.6 126.36 875.85 126.56 876.09 126.77L876.26 126.77L876.26 124.44C876.01 124.32 875.68 124.17 875.28 124C874.88 123.82 874.52 123.69 874.19 123.59Q873.58 123.41 872.91 123.3C872.46 123.23 871.99 123.19 871.5 123.19Q869.96 123.19 868.66 123.71C867.79 124.05 867.06 124.54 866.47 125.18C865.86 125.84 865.39 126.63 865.06 127.56C864.73 128.49 864.57 129.54 864.57 130.71C864.57 131.95 864.73 133.04 865.05 133.99Q865.54 135.42 866.46 136.38C867.07 137.02 867.8 137.5 868.66 137.81ZM841.47 138L849.9 138L849.9 136.28L843.4 136.28L843.4 123.45L841.47 123.45L841.47 138ZM860.95 128.17C861.16 128.91 861.27 129.77 861.27 130.73Q861.27 133.59 860.07 135.11C859.27 136.12 858.2 136.63 856.85 136.63Q855.73 136.63 854.85 136.16Q854.16 135.78 853.63 135.11C852.83 134.1 852.43 132.64 852.43 130.73C852.43 129.78 852.53 128.94 852.73 128.19C852.94 127.44 853.23 126.82 853.62 126.33C854.02 125.81 854.49 125.43 855.01 125.19Q855.8 124.82 856.85 124.82Q857.87 124.82 858.68 125.2Q858.9 125.3 859.11 125.43Q859.65 125.78 860.07 126.33Q860.64 127.06 860.95 128.17ZM888.45 128.17C888.66 128.91 888.77 129.77 888.77 130.73C888.77 132.64 888.37 134.1 887.57 135.11C886.77 136.12 885.7 136.63 884.35 136.63Q883.23 136.63 882.35 136.16Q881.66 135.78 881.13 135.11C880.33 134.1 879.93 132.64 879.93 130.73C879.93 129.78 880.03 128.94 880.23 128.19C880.44 127.44 880.73 126.82 881.12 126.33C881.52 125.81 881.99 125.43 882.51 125.19C883.03 124.94 883.65 124.82 884.35 124.82Q885.37 124.82 886.18 125.2Q886.4 125.3 886.61 125.43Q887.15 125.78 887.57 126.33Q888.14 127.06 888.45 128.17Z" fill="#232229" fill-opacity="1.000000" fill-rule="evenodd"/>
</svg>
