<svg width="136.000000" height="111.000000" viewBox="0 0 136 111" fill="none" xmlns="http://www.w3.org/2000/svg" xmlns:xlink="http://www.w3.org/1999/xlink">
	<desc>
			Created with Pixso.
	</desc>
	<defs>
		<clipPath id="clip20_217">
			<rect id="Entertainment" width="54.000000" height="55.000000" transform="translate(41.000000 29.000000)" fill="white" fill-opacity="0"/>
		</clipPath>
		<clipPath id="clip29_83">
			<rect id="Entertainment" width="54.000000" height="55.000000" transform="translate(41.000000 29.000000)" fill="white" fill-opacity="0"/>
		</clipPath>
	</defs>
	<ellipse id="Oval 2" cx="68.000000" cy="55.500000" rx="68.000000" ry="55.500000" fill="#FFFFFF" fill-opacity="1.000000"/>
	<ellipse id="Oval 2" cx="68.000000" cy="55.500000" rx="67.500000" ry="55.000000" stroke="#000000" stroke-opacity="1.000000" stroke-width="1.000000"/>
	<g clip-path="url(#clip20_217)">
		<path id="path" d="M59 56.79C65.21 56.79 70.25 51.6 70.25 45.21C70.25 38.81 65.21 33.63 59 33.63C52.78 33.63 47.75 38.81 47.75 45.21C47.75 51.6 52.78 56.79 59 56.79Z" fill="#000000" fill-opacity="0" fill-rule="nonzero"/>
		<path id="path" d="M70.25 45.21C70.25 38.81 65.21 33.63 59 33.63C52.78 33.63 47.75 38.81 47.75 45.21C47.75 51.6 52.78 56.79 59 56.79C65.21 56.79 70.25 51.6 70.25 45.21Z" stroke="#808080" stroke-opacity="1.000000" stroke-width="1.500000" stroke-linejoin="round"/>
		<path id="path" d="M69.74 47.12L69.71 47.12C69.42 46.82 69.42 46.36 69.72 46.06C70.02 45.77 70.49 45.78 70.78 46.08L70.78 46.1L69.74 47.12ZM60.58 57.35L60.55 57.35C60.23 57.07 60.21 56.61 60.48 56.29C60.76 55.98 61.23 55.95 61.54 56.23L61.54 56.25L60.58 57.35Z" fill="#000000" fill-opacity="0" fill-rule="nonzero"/>
		<path id="path" d="M70.25 46.6C70.26 46.62 75.56 53.47 86.14 67.17C86.51 67.63 86.48 68.31 86.07 68.73L81.47 73.46C81.06 73.88 80.41 73.91 79.96 73.53L61.05 56.79" stroke="#808080" stroke-opacity="1.000000" stroke-width="1.500000" stroke-linejoin="round" stroke-linecap="round"/>
		<path id="path" d="M70.26 57.86L70.24 57.86C69.94 57.55 69.95 57.09 70.25 56.79C70.55 56.5 71.02 56.51 71.31 56.81L71.31 56.84L70.26 57.86ZM74.47 60.08L74.49 60.09C74.79 60.39 74.78 60.85 74.48 61.15C74.18 61.44 73.71 61.43 73.42 61.13L73.42 61.1L74.47 60.08Z" fill="#000000" fill-opacity="0" fill-rule="nonzero"/>
		<path id="path" d="M70.77 57.33L73.96 60.61" stroke="#808080" stroke-opacity="1.000000" stroke-width="1.500000" stroke-linejoin="round" stroke-linecap="round"/>
		<path id="path" d="M60.72 80.47L60.72 80.5C60.47 80.83 60.01 80.9 59.67 80.65C59.34 80.4 59.27 79.94 59.52 79.6L59.55 79.6L60.72 80.47ZM85.39 73.25L85.36 73.25C85.05 72.97 85.03 72.5 85.31 72.19C85.6 71.88 86.06 71.86 86.37 72.14L86.37 72.17L85.39 73.25Z" fill="#000000" fill-opacity="0" fill-rule="nonzero"/>
		<path id="path" d="M60.12 80.05C62.28 77.16 64.9 75.71 67.98 75.71C72.61 75.71 78.08 81.7 82.74 80.87C87.4 80.05 88.73 75.32 85.87 72.7" stroke="#808080" stroke-opacity="1.000000" stroke-width="1.500000" stroke-linejoin="round" stroke-linecap="round"/>
	</g>
	<g clip-path="url(#clip29_83)">
		<path id="path" d="M59 56.79C65.21 56.79 70.25 51.6 70.25 45.21C70.25 38.81 65.21 33.63 59 33.63C52.78 33.63 47.75 38.81 47.75 45.21C47.75 51.6 52.78 56.79 59 56.79Z" fill="#000000" fill-opacity="0" fill-rule="nonzero"/>
		<path id="path" d="M70.25 45.21C70.25 38.81 65.21 33.63 59 33.63C52.78 33.63 47.75 38.81 47.75 45.21C47.75 51.6 52.78 56.79 59 56.79C65.21 56.79 70.25 51.6 70.25 45.21Z" stroke="#808080" stroke-opacity="1.000000" stroke-width="1.500000" stroke-linejoin="round"/>
		<path id="path" d="M69.74 47.12L69.71 47.12C69.42 46.82 69.42 46.36 69.72 46.06C70.02 45.77 70.49 45.78 70.78 46.08L70.78 46.1L69.74 47.12ZM60.58 57.35L60.55 57.35C60.23 57.07 60.21 56.61 60.48 56.29C60.76 55.98 61.23 55.95 61.54 56.23L61.54 56.25L60.58 57.35Z" fill="#000000" fill-opacity="0" fill-rule="nonzero"/>
		<path id="path" d="M70.25 46.6C70.26 46.62 75.56 53.47 86.14 67.17C86.51 67.63 86.48 68.31 86.07 68.73L81.47 73.46C81.06 73.88 80.41 73.91 79.96 73.53L61.05 56.79" stroke="#808080" stroke-opacity="1.000000" stroke-width="1.500000" stroke-linejoin="round" stroke-linecap="round"/>
		<path id="path" d="M70.26 57.86L70.24 57.86C69.94 57.55 69.95 57.09 70.25 56.79C70.55 56.5 71.02 56.51 71.31 56.81L71.31 56.84L70.26 57.86ZM74.47 60.08L74.49 60.09C74.79 60.39 74.78 60.85 74.48 61.15C74.18 61.44 73.71 61.43 73.42 61.13L73.42 61.1L74.47 60.08Z" fill="#000000" fill-opacity="0" fill-rule="nonzero"/>
		<path id="path" d="M70.77 57.33L73.96 60.61" stroke="#808080" stroke-opacity="1.000000" stroke-width="1.500000" stroke-linejoin="round" stroke-linecap="round"/>
		<path id="path" d="M60.72 80.47L60.72 80.5C60.47 80.83 60.01 80.9 59.67 80.65C59.34 80.4 59.27 79.94 59.52 79.6L59.55 79.6L60.72 80.47ZM85.39 73.25L85.36 73.25C85.05 72.97 85.03 72.5 85.31 72.19C85.6 71.88 86.06 71.86 86.37 72.14L86.37 72.17L85.39 73.25Z" fill="#000000" fill-opacity="0" fill-rule="nonzero"/>
		<path id="path" d="M60.12 80.05C62.28 77.16 64.9 75.71 67.98 75.71C72.61 75.71 78.08 81.7 82.74 80.87C87.4 80.05 88.73 75.32 85.87 72.7" stroke="#808080" stroke-opacity="1.000000" stroke-width="1.500000" stroke-linejoin="round" stroke-linecap="round"/>
	</g>
</svg>
