<svg width="26.721649" height="29.451332" viewBox="0 0 26.7216 29.4513" fill="none" xmlns="http://www.w3.org/2000/svg" xmlns:xlink="http://www.w3.org/1999/xlink">
	<desc>
			Created with Pixso.
	</desc>
	<defs/>
	<path id="path" d="M7.62 0.75C8.18 0.75 8.69 1.08 8.97 1.62L10.85 5.39C11.1 5.88 11.11 6.48 10.88 6.98L9.07 11.01C9.07 11.01 9.59 14.01 11.8 16.45C14 18.89 16.7 19.46 16.7 19.46L20.33 17.45C20.78 17.2 21.32 17.21 21.77 17.49L25.17 19.58C25.66 19.89 25.97 20.46 25.97 21.08L25.97 25.41C25.97 27.62 24.12 29.21 22.23 28.51C18.35 27.06 12.34 24.3 8.52 20.07C4.71 15.85 2.22 9.18 0.91 4.89C0.28 2.79 1.72 0.75 3.71 0.75L7.62 0.75Z" fill="#000000" fill-opacity="0" fill-rule="nonzero"/>
	<path id="path" d="M8.97 1.62L10.85 5.39C11.1 5.88 11.11 6.48 10.88 6.98L9.07 11.01C9.07 11.01 9.59 14.01 11.8 16.45C14 18.89 16.7 19.46 16.7 19.46L20.33 17.45C20.78 17.2 21.32 17.21 21.77 17.49L25.17 19.58C25.66 19.89 25.97 20.46 25.97 21.08L25.97 25.41C25.97 27.62 24.12 29.21 22.23 28.51C18.35 27.06 12.34 24.3 8.52 20.07C4.71 15.85 2.22 9.18 0.91 4.89C0.28 2.79 1.72 0.75 3.71 0.75L7.62 0.75C8.18 0.75 8.69 1.08 8.97 1.62Z" stroke="#000000" stroke-opacity="1.000000" stroke-width="1.500000" stroke-linejoin="round"/>
</svg>
