<svg width="386.000031" height="211.000000" viewBox="0 0 386 211" fill="none" xmlns="http://www.w3.org/2000/svg" xmlns:xlink="http://www.w3.org/1999/xlink">
	<desc>
			Created with Pixso.
	</desc>
	<defs/>
	<path id="“" d="M366.49 128.02Q367.38 123.7 368.29 119.98L364.18 119.98Q362.58 123.45 361.07 127.51Q359.57 131.57 358.68 134.96L359.07 135.67L365.08 135.67Q365.6 132.34 366.49 128.02ZM378.32 128.02C378.92 125.14 379.52 122.46 380.12 119.98L375.96 119.98Q374.37 123.45 372.82 127.51Q371.29 131.57 370.4 134.96L370.83 135.67L376.93 135.67C377.26 133.45 377.73 130.9 378.32 128.02Z" fill="#000000" fill-opacity="1.000000" fill-rule="evenodd"/>
	<path id="“" d="M19.5 82.97Q18.61 87.29 17.7 91.01L21.81 91.01Q23.41 87.54 24.92 83.48Q26.42 79.42 27.31 76.03L26.92 75.33L20.91 75.33Q20.39 78.65 19.5 82.97ZM7.67 82.97C7.07 85.85 6.47 88.53 5.87 91.01L10.03 91.01Q11.62 87.54 13.17 83.48Q14.7 79.42 15.59 76.03L15.16 75.33L9.06 75.33C8.73 77.54 8.27 80.09 7.67 82.97Z" fill="#FF8C10" fill-opacity="1.000000" fill-rule="evenodd"/>
	<path id="Fashion is not about clothes, It is about a look." d="M117.09 97.44L123.1 76.52L117.09 77.52L117.09 78.17Q117.92 78.05 118.32 78.05Q119.03 78.05 119.36 78.32Q119.54 78.46 119.62 78.65Q119.69 78.81 119.69 79.01Q119.69 79.31 119.11 81.33L114.35 97.82Q113.79 99.79 113.79 100.42Q113.79 100.65 113.85 100.86Q113.96 101.2 114.24 101.48Q114.43 101.68 114.66 101.79Q114.97 101.94 115.35 101.94Q116.28 101.94 117.32 101.27Q118.73 100.34 120.4 97.98L119.87 97.44Q118.87 98.95 117.95 99.67Q117.57 99.97 117.23 99.97Q117.1 99.97 117 99.92Q116.9 99.87 116.82 99.79Q116.76 99.73 116.72 99.66Q116.65 99.52 116.65 99.35Q116.65 99 117.09 97.44ZM287.99 97.44L294 76.52L287.99 77.52L287.99 78.17Q288.81 78.05 289.22 78.05Q289.92 78.05 290.26 78.32Q290.43 78.46 290.51 78.65Q290.59 78.81 290.59 79.01Q290.59 79.31 290.01 81.33L285.25 97.82Q284.68 99.79 284.68 100.42Q284.68 100.65 284.75 100.86Q284.85 101.2 285.13 101.48Q285.32 101.68 285.56 101.79Q285.87 101.94 286.25 101.94Q287.18 101.94 288.22 101.27Q289.62 100.34 291.29 97.98L290.76 97.44Q289.76 98.95 288.85 99.67Q288.46 99.97 288.13 99.97Q288 99.97 287.89 99.92Q287.79 99.87 287.72 99.79Q287.66 99.73 287.62 99.66Q287.55 99.52 287.55 99.35Q287.55 99 287.99 97.44ZM93.13 84.66L92.52 77.13L91.87 77.13Q91.82 78.03 91.58 78.34Q91.41 78.55 91.2 78.61Q91.11 78.64 91.01 78.64Q90.67 78.64 89.69 78.28Q87.74 77.55 86.67 77.34Q85.61 77.13 84.31 77.13Q80.74 77.13 78.12 78.66Q77.2 79.2 76.4 79.88Q74.47 81.51 73.2 83.94Q72.22 85.8 71.88 87.78Q71.69 88.86 71.69 89.96Q71.69 92.29 72.46 94.32Q73.13 96.08 74.38 97.63Q75.28 98.74 76.39 99.58Q79.7 102.06 84.87 102.06Q87.28 102.06 89.25 101.55Q91.22 101.04 93.24 99.95L93.24 92.65Q93.24 90.74 93.59 90.09Q93.72 89.86 93.9 89.69Q94.45 89.17 95.47 89.17L95.91 89.17L95.91 88.51L86.68 88.51L86.68 89.17Q88.12 89.17 88.7 89.46Q89.03 89.64 89.27 89.9Q89.43 90.08 89.54 90.31Q89.81 90.86 89.81 92.65L89.81 99.54Q88.7 100.18 87.49 100.51Q87.47 100.52 87.44 100.53Q87.4 100.54 87.37 100.55Q86.17 100.86 84.89 100.86Q84.55 100.86 84.22 100.83Q82.32 100.67 80.5 99.55Q78.37 98.24 77.05 95.43Q77.01 95.35 76.98 95.28Q75.73 92.53 75.73 89.21Q75.73 85.34 77.42 82.45Q77.56 82.21 77.72 81.97Q78.76 80.38 80.23 79.49Q82.1 78.36 84.64 78.36Q87.02 78.36 88.78 79.4Q89.49 79.82 90.11 80.42Q91.59 81.84 92.52 84.66L93.13 84.66ZM220.08 78.78Q219.74 78.63 219.35 78.63Q218.95 78.63 218.61 78.78Q218.33 78.9 218.1 79.14Q217.86 79.37 217.74 79.65Q217.59 79.99 217.59 80.38Q217.59 80.72 217.7 81.02Q217.83 81.35 218.11 81.62Q218.38 81.9 218.71 82.03Q219.01 82.14 219.35 82.14Q219.68 82.14 219.98 82.03Q220.31 81.9 220.58 81.62Q220.86 81.35 220.99 81.02Q221.1 80.72 221.1 80.38Q221.1 79.99 220.95 79.65Q220.83 79.37 220.59 79.14Q220.36 78.9 220.08 78.78ZM106 100.16Q108.12 98.7 109.57 96.28Q111.26 93.5 111.26 90.79Q111.26 89.22 110.58 88.04Q110.27 87.51 109.82 87.06Q109.36 86.6 108.82 86.29Q107.65 85.61 106.09 85.61Q102.31 85.61 98.14 89.74L98.51 90.25Q100.31 88.86 101.26 88.35Q102.89 87.43 104.42 87.43Q105.26 87.43 105.97 87.74Q106.59 88.01 107.11 88.52Q107.63 89.04 107.9 89.66Q108.22 90.36 108.22 91.2Q108.22 91.78 108.09 92.65Q104.54 93.06 102.56 93.78Q99.57 94.87 98.06 96.59Q97.09 97.69 96.93 98.89Q96.9 99.14 96.9 99.39Q96.9 99.99 97.15 100.46Q97.46 101.03 98.13 101.39Q99.11 101.94 100.55 101.94Q101.13 101.94 101.7 101.86Q103.69 101.6 105.56 100.44Q105.78 100.3 106 100.16ZM131.98 100.16Q134.1 98.7 135.55 96.28Q137.24 93.5 137.24 90.79Q137.24 89.22 136.56 88.04Q136.25 87.51 135.8 87.06Q135.34 86.6 134.8 86.29Q133.63 85.61 132.07 85.61Q128.29 85.61 124.12 89.74L124.49 90.25Q126.29 88.86 127.24 88.35Q128.87 87.43 130.4 87.43Q131.24 87.43 131.95 87.74Q132.57 88.01 133.09 88.52Q133.61 89.04 133.89 89.66Q134.2 90.36 134.2 91.2Q134.2 91.78 134.07 92.65Q130.52 93.06 128.54 93.78Q125.55 94.87 124.04 96.59Q123.07 97.69 122.91 98.89Q122.88 99.14 122.88 99.39Q122.88 99.99 123.13 100.46Q123.44 101.03 124.11 101.39Q125.09 101.94 126.53 101.94Q127.11 101.94 127.68 101.86Q129.67 101.6 131.54 100.44Q131.76 100.3 131.98 100.16ZM148.59 100.91Q150.46 99.88 152.28 97.68L151.77 97.22Q150.12 99 148.8 99.68Q147.57 100.3 146.33 100.35Q146.22 100.35 146.11 100.35Q144.72 100.35 143.79 99.7Q143.55 99.53 143.34 99.31Q143.17 99.14 143.03 98.95Q142.32 97.97 142.32 96.47Q142.32 93.76 143.76 91.05Q144.95 88.82 146.64 87.61Q148.26 86.45 149.91 86.4Q149.98 86.4 150.05 86.4Q150.98 86.4 151.49 86.75Q151.71 86.91 151.78 87.11Q151.83 87.23 151.83 87.36Q151.83 87.44 151.81 87.52Q151.79 87.63 151.74 87.73Q151.65 87.91 151.24 88.3Q150.83 88.7 150.69 88.98Q150.68 89.02 150.66 89.05Q150.56 89.3 150.56 89.6Q150.56 89.9 150.68 90.15Q150.77 90.33 150.92 90.47Q151.05 90.6 151.21 90.68Q151.48 90.83 151.83 90.83Q152.12 90.83 152.37 90.73Q152.75 90.59 153.04 90.23Q153.29 89.94 153.44 89.61Q153.71 89.05 153.71 88.37Q153.71 87.89 153.55 87.48Q153.32 86.88 152.76 86.41Q151.81 85.61 149.89 85.61Q147.45 85.61 144.91 87.23Q143.6 88.07 142.56 89.17Q141.59 90.2 140.87 91.46Q139.52 93.79 139.38 96.19Q139.36 96.47 139.36 96.75Q139.36 98.64 140.25 99.91Q140.48 100.24 140.76 100.53Q140.96 100.72 141.17 100.89Q142.51 101.94 144.66 101.94Q145.48 101.94 146.27 101.77Q147.47 101.53 148.59 100.91ZM163.94 100.16Q166.05 98.7 167.51 96.28Q169.19 93.5 169.19 90.79Q169.19 89.22 168.51 88.04Q168.2 87.51 167.75 87.06Q167.3 86.6 166.76 86.29Q165.59 85.61 164.03 85.61Q160.25 85.61 156.08 89.74L156.45 90.25Q158.24 88.86 159.19 88.35Q160.83 87.43 162.36 87.43Q163.2 87.43 163.9 87.74Q164.53 88.01 165.05 88.52Q165.57 89.04 165.84 89.66Q166.15 90.36 166.15 91.2Q166.15 91.78 166.03 92.65Q162.48 93.06 160.49 93.78Q157.5 94.87 155.99 96.59Q155.03 97.69 154.87 98.89Q154.83 99.14 154.83 99.39Q154.83 99.99 155.09 100.46Q155.39 101.03 156.06 101.39Q157.05 101.94 158.49 101.94Q159.07 101.94 159.63 101.86Q161.62 101.6 163.5 100.44Q163.72 100.3 163.94 100.16ZM176.91 87.51Q176.68 86.62 176.09 85.61L170.94 86.87L171.09 87.52Q172.04 87.42 172.41 87.42Q173.53 87.42 174.03 87.97Q174.05 87.99 174.06 88.01Q174.56 88.61 174.8 91.37L175.79 102.52Q174.98 103.61 173.29 105.33Q172.01 106.63 171.04 107.23Q170.78 107.4 170.67 107.4Q170.61 107.4 170.56 107.38Q170.51 107.36 170.46 107.31Q170.32 107.17 170.15 106.76Q169.99 106.35 169.85 106.26Q169.62 106.1 169.27 106.1Q169.13 106.1 169 106.12Q168.48 106.21 168.03 106.66Q167.6 107.09 167.49 107.58Q167.45 107.74 167.45 107.91Q167.45 108.12 167.51 108.31Q167.61 108.62 167.87 108.87Q168.12 109.13 168.43 109.22Q168.62 109.28 168.83 109.28Q169.74 109.28 171.02 108.5Q172.31 107.72 174.96 104.71Q178.81 100.35 181.52 96.66Q184.22 92.97 185.17 91.19Q186.12 89.4 186.12 88.01Q186.12 86.89 185.58 86.25Q185.24 85.85 184.82 85.7Q184.55 85.61 184.26 85.61Q183.9 85.61 183.61 85.74Q183.39 85.85 183.2 86.04Q183.12 86.14 183.04 86.24Q182.78 86.64 182.78 87.2Q182.78 87.53 182.89 87.82Q182.98 88.04 183.13 88.23Q183.33 88.5 183.6 88.67Q183.78 88.78 183.99 88.85Q184.51 89.02 184.63 89.14Q184.67 89.18 184.7 89.23Q184.75 89.32 184.75 89.45Q184.75 89.59 184.73 89.73Q184.7 89.88 184.65 90.04Q184.45 90.6 183.59 92Q182.17 94.31 181.2 95.64Q179.2 98.38 178.14 99.65L177.37 91Q177.14 88.4 176.91 87.51ZM195.89 100.16Q198.01 98.7 199.46 96.28Q201.15 93.5 201.15 90.79Q201.15 89.22 200.47 88.04Q200.16 87.51 199.71 87.06Q199.26 86.6 198.72 86.29Q197.55 85.61 195.98 85.61Q192.2 85.61 188.04 89.74L188.41 90.25Q190.2 88.86 191.15 88.35Q192.78 87.43 194.31 87.43Q195.15 87.43 195.86 87.74Q196.48 88.01 197 88.52Q197.52 89.04 197.8 89.66Q198.11 90.36 198.11 91.2Q198.11 91.78 197.99 92.65Q194.44 93.06 192.45 93.78Q189.46 94.87 187.95 96.59Q186.99 97.69 186.82 98.89Q186.79 99.14 186.79 99.39Q186.79 99.99 187.05 100.46Q187.35 101.03 188.02 101.39Q189.01 101.94 190.45 101.94Q191.02 101.94 191.59 101.86Q193.58 101.6 195.46 100.44Q195.68 100.3 195.89 100.16ZM216.09 97.93L219.57 85.61L213.51 86.59L213.51 87.28Q214.72 87.08 215.11 87.08Q215.56 87.08 215.83 87.3Q215.84 87.31 215.86 87.33Q215.97 87.43 216.04 87.56Q216.13 87.74 216.13 87.96Q216.13 88.45 215.57 90.39L213.28 98.26Q212.84 99.77 212.84 100.42Q212.84 100.79 212.98 101.08Q213.1 101.31 213.3 101.51Q213.41 101.61 213.55 101.7Q213.94 101.94 214.48 101.94Q215.57 101.94 216.76 101Q218.38 99.76 219.57 97.93L218.96 97.52Q217.94 98.98 216.94 99.77Q216.57 100.06 216.3 100.06Q216.21 100.06 216.13 100.03Q216.01 99.98 215.91 99.88Q215.87 99.84 215.84 99.79Q215.74 99.64 215.74 99.42Q215.74 99.18 216.09 97.93ZM226.9 93.6L229.24 85.61L223.16 86.7L223.27 87.33L223.93 87.22Q224.46 87.15 224.67 87.15Q224.96 87.15 225.2 87.27Q225.33 87.34 225.44 87.44Q225.63 87.63 225.7 87.85Q225.74 87.98 225.74 88.12Q225.74 88.52 225.18 90.51L221.98 101.51L224.62 101.51L225.5 98.61Q226.04 96.84 226.87 95.34Q228.43 92.51 229.84 90.69Q231.25 88.87 232.55 88.08Q233.23 87.66 233.72 87.66Q233.92 87.66 234.08 87.74Q234.19 87.79 234.29 87.88Q234.36 87.96 234.41 88.04Q234.52 88.22 234.52 88.45Q234.52 89.19 234.13 90.51L232.09 97.58Q231.49 99.63 231.49 100.48Q231.49 101.02 231.75 101.38Q231.81 101.47 231.88 101.54Q231.97 101.64 232.08 101.71Q232.42 101.94 232.92 101.94Q233.72 101.94 234.74 101.25Q236.2 100.25 237.84 97.91L237.29 97.58Q236.19 99.09 235.25 99.83Q234.95 100.06 234.74 100.06Q234.73 100.06 234.71 100.05Q234.57 100.04 234.44 99.89Q234.41 99.85 234.38 99.8Q234.3 99.66 234.3 99.47Q234.3 99.19 234.67 97.91L236.82 90.51Q237.33 88.75 237.33 87.7Q237.33 87.02 237.02 86.53Q236.91 86.34 236.76 86.19Q236.54 85.97 236.29 85.83Q235.86 85.61 235.31 85.61Q233.69 85.61 231.94 87.15Q230.19 88.7 226.9 93.6ZM252.76 97.52L256.19 85.61L253.39 86.03L252.76 88.03Q252.39 86.73 251.68 86.17Q251.58 86.09 251.48 86.03Q250.82 85.61 249.9 85.61Q248.1 85.61 246.08 87.08Q246.05 87.11 246.02 87.13Q243.48 88.98 241.82 92.05Q240.14 95.15 240.14 97.95Q240.14 99.79 241.05 100.85Q241.06 100.86 241.07 100.87Q241.67 101.55 242.41 101.8Q242.83 101.94 243.29 101.94Q244.62 101.94 246.01 101.07Q247.94 99.88 250.25 96.87L249.88 98.19Q249.49 99.6 249.49 100.46Q249.49 101.14 249.83 101.52Q249.85 101.54 249.87 101.56Q250.25 101.94 251 101.94Q252.09 101.94 253.38 100.98Q254.66 100.02 255.87 98.19L255.27 97.77Q254.13 99.37 253.45 99.88Q253.08 100.16 252.85 100.16Q252.74 100.16 252.66 100.12Q252.57 100.08 252.5 100Q252.42 99.91 252.38 99.8Q252.32 99.66 252.32 99.51Q252.32 99.35 252.37 99.12L252.76 97.52ZM262.82 93.53L265.1 85.61L259.04 86.71L259.19 87.36Q260.23 87.15 260.46 87.15Q260.9 87.15 261.21 87.35Q261.29 87.4 261.36 87.46Q261.63 87.69 261.69 87.98Q261.71 88.06 261.71 88.15Q261.71 88.31 261.59 88.65L261.16 90.12L257.91 101.51L260.51 101.51Q262.17 96.28 262.6 95.31Q263.52 93.25 265.18 91Q266.84 88.75 267.9 88.07Q268.55 87.64 269.13 87.64Q269.24 87.64 269.34 87.68Q269.49 87.74 269.6 87.87Q269.79 88.1 269.79 88.58Q269.79 89.16 269.3 90.88L266.3 101.51L268.95 101.51Q270.16 97.37 271.55 94.71Q273.66 90.69 276.09 88.45Q276.91 87.7 277.65 87.7Q277.71 87.7 277.76 87.71Q277.96 87.75 278.13 87.94Q278.32 88.19 278.32 88.63Q278.32 88.95 278.27 89.28Q278.23 89.49 277.69 91.44L276.09 97.08Q275.37 99.63 275.37 100.48Q275.37 100.83 275.5 101.12Q275.6 101.33 275.78 101.51Q275.96 101.7 276.17 101.8Q276.46 101.94 276.81 101.94Q277.48 101.94 278.27 101.5Q279.06 101.06 280.17 99.83Q281.29 98.6 281.73 97.89L281.15 97.52Q280.27 98.79 279.27 99.56Q278.83 99.9 278.65 99.9Q278.54 99.9 278.46 99.85Q278.41 99.82 278.37 99.77Q278.31 99.7 278.27 99.61Q278.21 99.49 278.21 99.35Q278.21 99.11 278.85 96.87L280.78 90.04Q281.1 88.89 281.1 87.87Q281.1 86.71 280.58 86.16Q280.37 85.94 280.12 85.8Q279.74 85.61 279.25 85.61Q277.86 85.61 276.44 86.8Q273.87 88.96 271.01 94.32L272.26 89.86Q272.66 88.47 272.66 87.61Q272.66 87.05 272.42 86.62Q272.29 86.37 272.08 86.17Q271.88 85.97 271.63 85.84Q271.19 85.61 270.62 85.61Q270.34 85.61 270.06 85.65Q269.34 85.76 268.67 86.17Q267.09 87.15 265.42 89.33Q264.35 90.74 262.82 93.53ZM306.76 97.52L310.19 85.61L307.39 86.03L306.76 88.03Q306.39 86.73 305.68 86.17Q305.58 86.09 305.48 86.03Q304.82 85.61 303.9 85.61Q302.1 85.61 300.08 87.08Q300.05 87.11 300.01 87.13Q297.48 88.98 295.82 92.05Q294.14 95.15 294.14 97.95Q294.14 99.79 295.05 100.85Q295.06 100.86 295.07 100.87Q295.67 101.55 296.41 101.8Q296.82 101.94 297.29 101.94Q298.62 101.94 300.01 101.07Q301.94 99.88 304.25 96.87L303.88 98.19Q303.49 99.6 303.49 100.46Q303.49 101.14 303.83 101.52Q303.85 101.54 303.87 101.56Q304.25 101.94 305 101.94Q306.09 101.94 307.38 100.98Q308.66 100.02 309.87 98.19L309.27 97.77Q308.13 99.37 307.45 99.88Q307.08 100.16 306.85 100.16Q306.74 100.16 306.66 100.12Q306.57 100.08 306.5 100Q306.42 99.91 306.38 99.8Q306.32 99.66 306.32 99.51Q306.32 99.35 306.37 99.12L306.76 97.52ZM247.54 87.57Q248.81 86.52 249.93 86.52Q250.61 86.52 251.09 86.83Q251.33 86.97 251.51 87.19Q252.09 87.86 252.09 89.35Q252.09 89.68 252.07 90.01Q251.84 93.62 249.09 97.07Q246.84 99.9 244.92 99.9Q244.72 99.9 244.52 99.85Q243.99 99.71 243.55 99.2Q243.54 99.19 243.53 99.18Q242.95 98.49 242.95 97.31Q242.95 94.94 244.35 92Q245.75 89.07 247.54 87.57ZM301.54 87.57Q302.81 86.52 303.93 86.52Q304.61 86.52 305.09 86.83Q305.32 86.97 305.51 87.19Q306.09 87.86 306.09 89.35Q306.09 89.68 306.07 90.01Q305.84 93.62 303.09 97.07Q300.84 99.9 298.92 99.9Q298.72 99.9 298.52 99.85Q297.99 99.71 297.55 99.2Q297.54 99.19 297.53 99.18Q296.95 98.49 296.95 97.31Q296.95 94.94 298.35 92Q299.75 89.07 301.54 87.57ZM100.5 96.86Q102.7 94.11 107.97 93.52Q107.28 96.24 105.73 98.32Q105.7 98.36 105.67 98.4Q103.97 100.65 101.95 100.99Q101.58 101.06 101.2 101.06Q100.23 101.06 99.79 100.57Q99.41 100.16 99.41 99.4Q99.41 98.21 100.5 96.86ZM126.48 96.86Q128.68 94.11 133.95 93.52Q133.26 96.24 131.71 98.32Q131.68 98.36 131.65 98.4Q129.95 100.65 127.94 100.99Q127.56 101.06 127.18 101.06Q126.21 101.06 125.77 100.57Q125.39 100.16 125.39 99.4Q125.39 98.21 126.48 96.86ZM158.44 96.86Q160.63 94.11 165.91 93.52Q165.22 96.24 163.67 98.32Q163.64 98.36 163.6 98.4Q161.91 100.65 159.89 100.99Q159.52 101.06 159.14 101.06Q158.17 101.06 157.73 100.57Q157.35 100.16 157.35 99.4Q157.35 98.21 158.44 96.86ZM190.39 96.86Q192.59 94.11 197.86 93.52Q197.18 96.24 195.63 98.32Q195.59 98.36 195.56 98.4Q193.87 100.65 191.85 100.99Q191.48 101.06 191.1 101.06Q190.13 101.06 189.68 100.57Q189.3 100.16 189.3 99.4Q189.3 98.21 190.39 96.86Z" fill="#232229" fill-opacity="1.000000" fill-rule="evenodd"/>
</svg>
