<svg width="164.999969" height="150.000000" viewBox="0 0 165 150" fill="none" xmlns="http://www.w3.org/2000/svg" xmlns:xlink="http://www.w3.org/1999/xlink">
	<desc>
			Created with Pixso.
	</desc>
	<defs>
		<clipPath id="clip50_160">
			<rect id="frame" width="111.000000" height="88.000000" transform="translate(26.999969 31.000000)" fill="white" fill-opacity="0"/>
		</clipPath>
	</defs>
	<ellipse id="Oval 1" cx="82.499969" cy="75.000000" rx="82.500000" ry="75.000000" fill="#C4C4C4" fill-opacity="1.000000"/>
	<rect id="frame" width="111.000000" height="88.000000" transform="translate(26.999969 31.000000)" fill="#FFFFFF" fill-opacity="0"/>
	<g clip-path="url(#clip50_160)">
		<path id="Vector" d="M83.57 74.16C83.43 74.16 83.34 74.16 83.2 74.16C82.97 74.12 82.64 74.12 82.36 74.16C68.87 73.82 58.68 65.36 58.68 54.92C58.68 44.29 69.52 35.64 82.83 35.64C96.14 35.64 106.98 44.29 106.98 54.92C106.93 65.36 96.69 73.82 83.71 74.16C83.66 74.16 83.62 74.16 83.57 74.16ZM82.83 41.21C73.38 41.21 65.66 47.38 65.66 54.92C65.66 62.35 72.92 68.33 82.18 68.59C82.41 68.55 83.06 68.55 83.66 68.59C92.78 68.25 99.95 62.27 100 54.92C100 47.38 92.27 41.21 82.83 41.21Z" fill="#232229" fill-opacity="1.000000" fill-rule="nonzero"/>
		<path id="Vector" d="M83.63 114.76C74.51 114.76 65.34 112.9 58.41 109.19C51.94 105.77 48.41 101.09 48.41 96C48.41 90.91 51.94 86.19 58.41 82.74C72.37 75.35 94.99 75.35 108.85 82.74C115.27 86.16 118.86 90.84 118.86 95.93C118.86 101.02 115.32 105.73 108.85 109.19C101.87 112.9 92.75 114.76 83.63 114.76ZM62.27 87.42C57.81 89.8 55.39 92.84 55.39 96.04C55.39 99.2 57.85 102.24 62.27 104.58C73.86 110.79 93.4 110.79 104.99 104.58C109.46 102.2 111.88 99.16 111.88 95.96C111.88 92.81 109.41 89.76 104.99 87.42C93.4 81.25 73.86 81.25 62.27 87.42Z" fill="#232229" fill-opacity="1.000000" fill-rule="nonzero"/>
	</g>
</svg>
