<svg width="986.000000" height="10.535156" viewBox="0 0 986 10.5352" fill="none" xmlns="http://www.w3.org/2000/svg" xmlns:xlink="http://www.w3.org/1999/xlink">
	<desc>
			Created with Pixso.
	</desc>
	<defs>
		<linearGradient x1="543.007812" y1="6.222473" x2="985.500000" y2="6.222473" id="paint_linear_15_171_0" gradientUnits="userSpaceOnUse">
			<stop stop-color="#D3D3D3"/>
			<stop offset="1.000000" stop-color="#B0B0B0"/>
		</linearGradient>
		<linearGradient x1="0.505325" y1="6.222473" x2="442.997620" y2="6.222473" id="paint_linear_15_172_0" gradientUnits="userSpaceOnUse">
			<stop stop-color="#B0B0B0"/>
			<stop offset="1.000000" stop-color="#D3D3D3"/>
		</linearGradient>
	</defs>
	<path id="Line 3" d="M543 6.22L985.5 6.22" stroke="url(#paint_linear_15_171_0)" stroke-opacity="1.000000" stroke-width="1.000000" stroke-linecap="round"/>
	<path id="Line 4" d="M0.5 6.22L442.99 6.22" stroke="url(#paint_linear_15_172_0)" stroke-opacity="1.000000" stroke-width="1.000000" stroke-linecap="round"/>
	<path id="or" d="M486.02 0.21L486.02 0L483.57 0L483.57 0.21Q483.64 0.22 483.67 0.23Q484.07 0.29 484.24 0.45Q484.4 0.59 484.41 0.75Q484.41 0.76 484.41 0.77Q484.41 1.04 484.13 1.72L482.26 6.32L480.24 1.66Q479.97 1.04 479.97 0.75Q479.97 0.64 480.01 0.56Q480.05 0.47 480.13 0.4Q480.3 0.26 480.85 0.21L480.85 0L477.6 0L477.6 0.21Q477.96 0.24 478.18 0.34Q478.3 0.4 478.4 0.49Q478.48 0.55 478.54 0.63Q478.63 0.75 478.86 1.27L481.84 8.12L482.05 8.12L484.83 1.36Q485.07 0.77 485.38 0.48Q485.59 0.29 486.02 0.21ZM490.58 7.16Q491.15 6.38 491.15 5.19Q491.15 4.22 490.72 3.51Q490.64 3.39 490.56 3.27Q490.25 2.86 489.84 2.65Q489.38 2.41 488.8 2.41Q488.46 2.41 488.15 2.52Q487.7 2.67 487.33 3.05Q487.11 3.28 486.96 3.53Q486.69 3.98 486.61 4.53L486.79 4.65Q487.11 3.79 487.71 3.5Q488 3.36 488.36 3.36Q488.78 3.36 489.12 3.53Q489.55 3.74 489.85 4.2Q489.89 4.26 489.92 4.32Q490.32 5 490.32 5.92L486.61 5.92Q486.61 6.67 486.95 7.2Q487.04 7.35 487.16 7.48Q487.35 7.69 487.58 7.83Q488.04 8.1 488.67 8.1Q489.38 8.1 489.9 7.8Q490.26 7.58 490.54 7.22Q490.56 7.19 490.58 7.16ZM499.87 7.91Q500.08 7.81 500.9 7.17Q500.91 7.65 501.08 7.85Q501.14 7.92 501.22 7.97Q501.36 8.05 501.54 8.05Q502.13 8.05 502.79 7.17L502.79 6.84Q502.44 7.19 502.32 7.27Q502.31 7.27 502.31 7.27Q502.24 7.31 502.15 7.31Q502.11 7.31 502.07 7.29Q502.03 7.28 502 7.25Q501.93 7.19 501.9 7.02Q501.87 6.84 501.87 6.08L501.87 4.25Q501.87 3.48 501.77 3.22Q501.66 2.97 501.47 2.8Q501.37 2.72 501.26 2.66Q500.8 2.41 500.08 2.41Q499.15 2.41 498.64 2.84Q498.2 3.19 498.13 3.61Q498.12 3.69 498.12 3.76Q498.12 4.01 498.24 4.16Q498.25 4.17 498.26 4.18Q498.32 4.24 498.39 4.28Q498.49 4.33 498.61 4.33Q498.76 4.33 498.87 4.27Q498.93 4.23 498.97 4.18Q498.98 4.18 498.98 4.18Q499.11 4.03 499.11 3.77L499.1 3.43Q499.1 3.36 499.12 3.29Q499.16 3.11 499.32 2.97Q499.34 2.95 499.37 2.93Q499.58 2.77 499.91 2.77Q500.29 2.77 500.53 2.96Q500.59 3.01 500.65 3.07Q500.9 3.37 500.9 4.17L500.9 4.38Q499.52 4.89 498.93 5.24Q498.33 5.59 498.09 5.99Q498.09 5.99 498.09 6Q497.92 6.28 497.92 6.67Q497.92 7.16 498.14 7.5Q498.2 7.59 498.28 7.67Q498.42 7.82 498.6 7.92Q498.86 8.05 499.19 8.05Q499.42 8.05 499.63 7.99Q499.75 7.96 499.87 7.91ZM494.06 2.57L491.56 2.57L491.56 2.79Q491.86 2.86 491.99 2.95Q492.09 3.02 492.23 3.23Q492.43 3.5 492.51 3.68L494.44 7.73L494.06 8.66Q493.85 9.18 493.64 9.36Q493.43 9.55 493.26 9.55Q493.2 9.55 492.96 9.46Q492.63 9.33 492.44 9.33Q492.18 9.33 492.02 9.46Q492.01 9.47 491.99 9.48Q491.94 9.53 491.91 9.59Q491.83 9.71 491.83 9.87Q491.83 9.95 491.85 10.02Q491.9 10.19 492.06 10.33Q492.11 10.38 492.16 10.41Q492.36 10.53 492.62 10.53Q493.1 10.53 493.61 10.13Q494.12 9.73 494.44 8.95L496.63 3.6Q496.77 3.23 496.83 3.15Q496.97 2.95 497.08 2.88Q497.2 2.81 497.42 2.79L497.42 2.57L495.67 2.57L495.67 2.79Q495.92 2.79 496.02 2.83Q496.12 2.87 496.17 2.93Q496.21 2.98 496.21 3.09Q496.21 3.32 496.11 3.56L494.91 6.53L493.6 3.82Q493.41 3.42 493.41 3.19Q493.41 3.11 493.44 3.04Q493.47 2.97 493.54 2.9Q493.67 2.79 493.94 2.79L494.06 2.79L494.06 2.57ZM500.9 4.74L500.9 6.79Q500.18 7.37 499.73 7.37Q499.63 7.37 499.54 7.35Q499.33 7.29 499.15 7.09Q499.08 7.02 499.03 6.93Q498.9 6.7 498.9 6.39Q498.9 6.25 498.93 6.13Q498.98 5.94 499.1 5.78Q499.3 5.5 499.76 5.24Q500.02 5.09 500.9 4.74ZM487.83 6.26L490.32 6.26Q490.26 6.77 490.01 7.14Q489.97 7.19 489.93 7.24Q489.73 7.48 489.48 7.59Q489.26 7.69 489 7.69Q488.66 7.69 488.41 7.54Q488.12 7.37 487.95 6.99Q487.86 6.77 487.83 6.26Z" fill="#383838" fill-opacity="1.000000" fill-rule="evenodd"/>
</svg>
